<svg xmlns="http://www.w3.org/2000/svg" width="128" height="128" viewBox="0 0 128 128"><rect width="128" height="128" fill="#9c9f9f"/><g fill="none" stroke="#656868" stroke-width="2" opacity=".65"><rect x="0" y="0" width="14" height="8" rx="3"/><rect x="31" y="17" width="19" height="12" rx="3"/><rect x="62" y="34" width="24" height="16" rx="3"/><rect x="93" y="51" width="29" height="8" rx="3"/><rect x="4" y="68" width="34" height="12" rx="3"/><rect x="35" y="85" width="14" height="16" rx="3"/><rect x="66" y="102" width="19" height="8" rx="3"/><rect x="97" y="119" width="24" height="12" rx="3"/><rect x="8" y="16" width="29" height="16" rx="3"/><rect x="39" y="33" width="34" height="8" rx="3"/><rect x="70" y="50" width="14" height="12" rx="3"/><rect x="101" y="67" width="19" height="16" rx="3"/><rect x="12" y="84" width="24" height="8" rx="3"/><rect x="43" y="101" width="29" height="12" rx="3"/><rect x="74" y="118" width="34" height="16" rx="3"/><rect x="105" y="15" width="14" height="8" rx="3"/><rect x="16" y="32" width="19" height="12" rx="3"/><rect x="47" y="49" width="24" height="16" rx="3"/><rect x="78" y="66" width="29" height="8" rx="3"/><rect x="109" y="83" width="34" height="12" rx="3"/><rect x="20" y="100" width="14" height="16" rx="3"/><rect x="51" y="117" width="19" height="8" rx="3"/><rect x="82" y="14" width="24" height="12" rx="3"/><rect x="113" y="31" width="29" height="16" rx="3"/></g></svg>