<svg xmlns="http://www.w3.org/2000/svg" width="128" height="128" viewBox="0 0 128 128"><rect width="128" height="128" fill="#d5a245"/><g fill="#7a4b24" opacity=".75"><circle cx="0" cy="0" r="2"/><circle cx="23" cy="41" r="3"/><circle cx="46" cy="82" r="4"/><circle cx="69" cy="123" r="5"/><circle cx="92" cy="36" r="2"/><circle cx="115" cy="77" r="3"/><circle cx="10" cy="118" r="4"/><circle cx="33" cy="31" r="5"/><circle cx="56" cy="72" r="2"/><circle cx="79" cy="113" r="3"/><circle cx="102" cy="26" r="4"/><circle cx="125" cy="67" r="5"/><circle cx="20" cy="108" r="2"/><circle cx="43" cy="21" r="3"/><circle cx="66" cy="62" r="4"/><circle cx="89" cy="103" r="5"/><circle cx="112" cy="16" r="2"/><circle cx="7" cy="57" r="3"/><circle cx="30" cy="98" r="4"/><circle cx="53" cy="11" r="5"/><circle cx="76" cy="52" r="2"/><circle cx="99" cy="93" r="3"/><circle cx="122" cy="6" r="4"/><circle cx="17" cy="47" r="5"/><circle cx="40" cy="88" r="2"/><circle cx="63" cy="1" r="3"/><circle cx="86" cy="42" r="4"/><circle cx="109" cy="83" r="5"/><circle cx="4" cy="124" r="2"/><circle cx="27" cy="37" r="3"/><circle cx="50" cy="78" r="4"/><circle cx="73" cy="119" r="5"/><circle cx="96" cy="32" r="2"/><circle cx="119" cy="73" r="3"/><circle cx="14" cy="114" r="4"/><circle cx="37" cy="27" r="5"/><circle cx="60" cy="68" r="2"/><circle cx="83" cy="109" r="3"/><circle cx="106" cy="22" r="4"/><circle cx="1" cy="63" r="5"/><circle cx="24" cy="104" r="2"/><circle cx="47" cy="17" r="3"/><circle cx="70" cy="58" r="4"/><circle cx="93" cy="99" r="5"/><circle cx="116" cy="12" r="2"/><circle cx="11" cy="53" r="3"/><circle cx="34" cy="94" r="4"/><circle cx="57" cy="7" r="5"/><circle cx="80" cy="48" r="2"/><circle cx="103" cy="89" r="3"/><circle cx="126" cy="2" r="4"/><circle cx="21" cy="43" r="5"/><circle cx="44" cy="84" r="2"/><circle cx="67" cy="125" r="3"/><circle cx="90" cy="38" r="4"/><circle cx="113" cy="79" r="5"/><circle cx="8" cy="120" r="2"/><circle cx="31" cy="33" r="3"/><circle cx="54" cy="74" r="4"/><circle cx="77" cy="115" r="5"/></g></svg>