<svg xmlns="http://www.w3.org/2000/svg" width="128" height="128" viewBox="0 0 128 128"><rect width="128" height="128" fill="#b8a85f"/><g stroke="#e0d586" stroke-width="2" opacity=".75"><path d="M0 0 l-3 -8"/><path d="M17 29 l-2 -9"/><path d="M34 58 l-1 -10"/><path d="M51 87 l0 -11"/><path d="M68 116 l1 -12"/><path d="M85 17 l2 -8"/><path d="M102 46 l3 -9"/><path d="M119 75 l-3 -10"/><path d="M8 104 l-2 -11"/><path d="M25 5 l-1 -12"/><path d="M42 34 l0 -8"/><path d="M59 63 l1 -9"/><path d="M76 92 l2 -10"/><path d="M93 121 l3 -11"/><path d="M110 22 l-3 -12"/><path d="M127 51 l-2 -8"/><path d="M16 80 l-1 -9"/><path d="M33 109 l0 -10"/><path d="M50 10 l1 -11"/><path d="M67 39 l2 -12"/><path d="M84 68 l3 -8"/><path d="M101 97 l-3 -9"/><path d="M118 126 l-2 -10"/><path d="M7 27 l-1 -11"/><path d="M24 56 l0 -12"/><path d="M41 85 l1 -8"/><path d="M58 114 l2 -9"/><path d="M75 15 l3 -10"/><path d="M92 44 l-3 -11"/><path d="M109 73 l-2 -12"/><path d="M126 102 l-1 -8"/><path d="M15 3 l0 -9"/><path d="M32 32 l1 -10"/><path d="M49 61 l2 -11"/><path d="M66 90 l3 -12"/><path d="M83 119 l-3 -8"/><path d="M100 20 l-2 -9"/><path d="M117 49 l-1 -10"/><path d="M6 78 l0 -11"/><path d="M23 107 l1 -12"/><path d="M40 8 l2 -8"/><path d="M57 37 l3 -9"/><path d="M74 66 l-3 -10"/><path d="M91 95 l-2 -11"/><path d="M108 124 l-1 -12"/><path d="M125 25 l0 -8"/><path d="M14 54 l1 -9"/><path d="M31 83 l2 -10"/><path d="M48 112 l3 -11"/><path d="M65 13 l-3 -12"/><path d="M82 42 l-2 -8"/><path d="M99 71 l-1 -9"/><path d="M116 100 l0 -10"/><path d="M5 1 l1 -11"/><path d="M22 30 l2 -12"/><path d="M39 59 l3 -8"/><path d="M56 88 l-3 -9"/><path d="M73 117 l-2 -10"/><path d="M90 18 l-1 -11"/><path d="M107 47 l0 -12"/><path d="M124 76 l1 -8"/><path d="M13 105 l2 -9"/><path d="M30 6 l3 -10"/><path d="M47 35 l-3 -11"/><path d="M64 64 l-2 -12"/><path d="M81 93 l-1 -8"/><path d="M98 122 l0 -9"/><path d="M115 23 l1 -10"/><path d="M4 52 l2 -11"/><path d="M21 81 l3 -12"/><path d="M38 110 l-3 -8"/><path d="M55 11 l-2 -9"/><path d="M72 40 l-1 -10"/><path d="M89 69 l0 -11"/><path d="M106 98 l1 -12"/><path d="M123 127 l2 -8"/><path d="M12 28 l3 -9"/><path d="M29 57 l-3 -10"/><path d="M46 86 l-2 -11"/><path d="M63 115 l-1 -12"/></g></svg>