<svg xmlns="http://www.w3.org/2000/svg" width="128" height="128" viewBox="0 0 128 128"><rect width="128" height="128" fill="#2f7d32"/><g fill="#174a20" opacity=".8"><ellipse cx="0" cy="0" rx="5" ry="3" transform="rotate(0 0 0)"/><ellipse cx="19" cy="37" rx="6" ry="4" transform="rotate(23 19 37)"/><ellipse cx="38" cy="74" rx="7" ry="5" transform="rotate(46 38 74)"/><ellipse cx="57" cy="111" rx="8" ry="6" transform="rotate(69 57 111)"/><ellipse cx="76" cy="20" rx="9" ry="3" transform="rotate(92 76 20)"/><ellipse cx="95" cy="57" rx="5" ry="4" transform="rotate(115 95 57)"/><ellipse cx="114" cy="94" rx="6" ry="5" transform="rotate(138 114 94)"/><ellipse cx="5" cy="3" rx="7" ry="6" transform="rotate(161 5 3)"/><ellipse cx="24" cy="40" rx="8" ry="3" transform="rotate(4 24 40)"/><ellipse cx="43" cy="77" rx="9" ry="4" transform="rotate(27 43 77)"/><ellipse cx="62" cy="114" rx="5" ry="5" transform="rotate(50 62 114)"/><ellipse cx="81" cy="23" rx="6" ry="6" transform="rotate(73 81 23)"/><ellipse cx="100" cy="60" rx="7" ry="3" transform="rotate(96 100 60)"/><ellipse cx="119" cy="97" rx="8" ry="4" transform="rotate(119 119 97)"/><ellipse cx="10" cy="6" rx="9" ry="5" transform="rotate(142 10 6)"/><ellipse cx="29" cy="43" rx="5" ry="6" transform="rotate(165 29 43)"/><ellipse cx="48" cy="80" rx="6" ry="3" transform="rotate(8 48 80)"/><ellipse cx="67" cy="117" rx="7" ry="4" transform="rotate(31 67 117)"/><ellipse cx="86" cy="26" rx="8" ry="5" transform="rotate(54 86 26)"/><ellipse cx="105" cy="63" rx="9" ry="6" transform="rotate(77 105 63)"/><ellipse cx="124" cy="100" rx="5" ry="3" transform="rotate(100 124 100)"/><ellipse cx="15" cy="9" rx="6" ry="4" transform="rotate(123 15 9)"/><ellipse cx="34" cy="46" rx="7" ry="5" transform="rotate(146 34 46)"/><ellipse cx="53" cy="83" rx="8" ry="6" transform="rotate(169 53 83)"/><ellipse cx="72" cy="120" rx="9" ry="3" transform="rotate(12 72 120)"/><ellipse cx="91" cy="29" rx="5" ry="4" transform="rotate(35 91 29)"/><ellipse cx="110" cy="66" rx="6" ry="5" transform="rotate(58 110 66)"/><ellipse cx="1" cy="103" rx="7" ry="6" transform="rotate(81 1 103)"/><ellipse cx="20" cy="12" rx="8" ry="3" transform="rotate(104 20 12)"/><ellipse cx="39" cy="49" rx="9" ry="4" transform="rotate(127 39 49)"/><ellipse cx="58" cy="86" rx="5" ry="5" transform="rotate(150 58 86)"/><ellipse cx="77" cy="123" rx="6" ry="6" transform="rotate(173 77 123)"/><ellipse cx="96" cy="32" rx="7" ry="3" transform="rotate(16 96 32)"/><ellipse cx="115" cy="69" rx="8" ry="4" transform="rotate(39 115 69)"/><ellipse cx="6" cy="106" rx="9" ry="5" transform="rotate(62 6 106)"/><ellipse cx="25" cy="15" rx="5" ry="6" transform="rotate(85 25 15)"/><ellipse cx="44" cy="52" rx="6" ry="3" transform="rotate(108 44 52)"/><ellipse cx="63" cy="89" rx="7" ry="4" transform="rotate(131 63 89)"/><ellipse cx="82" cy="126" rx="8" ry="5" transform="rotate(154 82 126)"/><ellipse cx="101" cy="35" rx="9" ry="6" transform="rotate(177 101 35)"/><ellipse cx="120" cy="72" rx="5" ry="3" transform="rotate(20 120 72)"/><ellipse cx="11" cy="109" rx="6" ry="4" transform="rotate(43 11 109)"/><ellipse cx="30" cy="18" rx="7" ry="5" transform="rotate(66 30 18)"/><ellipse cx="49" cy="55" rx="8" ry="6" transform="rotate(89 49 55)"/><ellipse cx="68" cy="92" rx="9" ry="3" transform="rotate(112 68 92)"/><ellipse cx="87" cy="1" rx="5" ry="4" transform="rotate(135 87 1)"/><ellipse cx="106" cy="38" rx="6" ry="5" transform="rotate(158 106 38)"/><ellipse cx="125" cy="75" rx="7" ry="6" transform="rotate(1 125 75)"/><ellipse cx="16" cy="112" rx="8" ry="3" transform="rotate(24 16 112)"/><ellipse cx="35" cy="21" rx="9" ry="4" transform="rotate(47 35 21)"/><ellipse cx="54" cy="58" rx="5" ry="5" transform="rotate(70 54 58)"/><ellipse cx="73" cy="95" rx="6" ry="6" transform="rotate(93 73 95)"/><ellipse cx="92" cy="4" rx="7" ry="3" transform="rotate(116 92 4)"/><ellipse cx="111" cy="41" rx="8" ry="4" transform="rotate(139 111 41)"/><ellipse cx="2" cy="78" rx="9" ry="5" transform="rotate(162 2 78)"/><ellipse cx="21" cy="115" rx="5" ry="6" transform="rotate(5 21 115)"/><ellipse cx="40" cy="24" rx="6" ry="3" transform="rotate(28 40 24)"/><ellipse cx="59" cy="61" rx="7" ry="4" transform="rotate(51 59 61)"/><ellipse cx="78" cy="98" rx="8" ry="5" transform="rotate(74 78 98)"/><ellipse cx="97" cy="7" rx="9" ry="6" transform="rotate(97 97 7)"/><ellipse cx="116" cy="44" rx="5" ry="3" transform="rotate(120 116 44)"/><ellipse cx="7" cy="81" rx="6" ry="4" transform="rotate(143 7 81)"/><ellipse cx="26" cy="118" rx="7" ry="5" transform="rotate(166 26 118)"/><ellipse cx="45" cy="27" rx="8" ry="6" transform="rotate(9 45 27)"/><ellipse cx="64" cy="64" rx="9" ry="3" transform="rotate(32 64 64)"/><ellipse cx="83" cy="101" rx="5" ry="4" transform="rotate(55 83 101)"/><ellipse cx="102" cy="10" rx="6" ry="5" transform="rotate(78 102 10)"/><ellipse cx="121" cy="47" rx="7" ry="6" transform="rotate(101 121 47)"/><ellipse cx="12" cy="84" rx="8" ry="3" transform="rotate(124 12 84)"/><ellipse cx="31" cy="121" rx="9" ry="4" transform="rotate(147 31 121)"/></g></svg>