<svg xmlns="http://www.w3.org/2000/svg" width="128" height="128" viewBox="0 0 128 128"><rect width="128" height="128" fill="#95d66b"/><g opacity=".9"><circle cx="0" cy="0" r="4" fill="#e84d8a"/><circle cx="29" cy="47" r="4" fill="#ffd24a"/><circle cx="58" cy="94" r="4" fill="#8f59cf"/><circle cx="87" cy="13" r="4" fill="#ffffff"/><circle cx="116" cy="60" r="4" fill="#f07c30"/><circle cx="17" cy="107" r="4" fill="#e84d8a"/><circle cx="46" cy="26" r="4" fill="#ffd24a"/><circle cx="75" cy="73" r="4" fill="#8f59cf"/><circle cx="104" cy="120" r="4" fill="#ffffff"/><circle cx="5" cy="39" r="4" fill="#f07c30"/><circle cx="34" cy="86" r="4" fill="#e84d8a"/><circle cx="63" cy="5" r="4" fill="#ffd24a"/><circle cx="92" cy="52" r="4" fill="#8f59cf"/><circle cx="121" cy="99" r="4" fill="#ffffff"/><circle cx="22" cy="18" r="4" fill="#f07c30"/><circle cx="51" cy="65" r="4" fill="#e84d8a"/><circle cx="80" cy="112" r="4" fill="#ffd24a"/><circle cx="109" cy="31" r="4" fill="#8f59cf"/><circle cx="10" cy="78" r="4" fill="#ffffff"/><circle cx="39" cy="125" r="4" fill="#f07c30"/><circle cx="68" cy="44" r="4" fill="#e84d8a"/><circle cx="97" cy="91" r="4" fill="#ffd24a"/><circle cx="126" cy="10" r="4" fill="#8f59cf"/><circle cx="27" cy="57" r="4" fill="#ffffff"/><circle cx="56" cy="104" r="4" fill="#f07c30"/><circle cx="85" cy="23" r="4" fill="#e84d8a"/><circle cx="114" cy="70" r="4" fill="#ffd24a"/><circle cx="15" cy="117" r="4" fill="#8f59cf"/><circle cx="44" cy="36" r="4" fill="#ffffff"/><circle cx="73" cy="83" r="4" fill="#f07c30"/><circle cx="102" cy="2" r="4" fill="#e84d8a"/><circle cx="3" cy="49" r="4" fill="#ffd24a"/><circle cx="32" cy="96" r="4" fill="#8f59cf"/><circle cx="61" cy="15" r="4" fill="#ffffff"/><circle cx="90" cy="62" r="4" fill="#f07c30"/><circle cx="119" cy="109" r="4" fill="#e84d8a"/><circle cx="20" cy="28" r="4" fill="#ffd24a"/><circle cx="49" cy="75" r="4" fill="#8f59cf"/><circle cx="78" cy="122" r="4" fill="#ffffff"/><circle cx="107" cy="41" r="4" fill="#f07c30"/><circle cx="8" cy="88" r="4" fill="#e84d8a"/><circle cx="37" cy="7" r="4" fill="#ffd24a"/><circle cx="66" cy="54" r="4" fill="#8f59cf"/><circle cx="95" cy="101" r="4" fill="#ffffff"/><circle cx="124" cy="20" r="4" fill="#f07c30"/><circle cx="25" cy="67" r="4" fill="#e84d8a"/><circle cx="54" cy="114" r="4" fill="#ffd24a"/><circle cx="83" cy="33" r="4" fill="#8f59cf"/><circle cx="112" cy="80" r="4" fill="#ffffff"/><circle cx="13" cy="127" r="4" fill="#f07c30"/><circle cx="42" cy="46" r="4" fill="#e84d8a"/><circle cx="71" cy="93" r="4" fill="#ffd24a"/><circle cx="100" cy="12" r="4" fill="#8f59cf"/><circle cx="1" cy="59" r="4" fill="#ffffff"/><circle cx="30" cy="106" r="4" fill="#f07c30"/><circle cx="59" cy="25" r="4" fill="#e84d8a"/><circle cx="88" cy="72" r="4" fill="#ffd24a"/><circle cx="117" cy="119" r="4" fill="#8f59cf"/><circle cx="18" cy="38" r="4" fill="#ffffff"/><circle cx="47" cy="85" r="4" fill="#f07c30"/><circle cx="76" cy="4" r="4" fill="#e84d8a"/><circle cx="105" cy="51" r="4" fill="#ffd24a"/><circle cx="6" cy="98" r="4" fill="#8f59cf"/><circle cx="35" cy="17" r="4" fill="#ffffff"/><circle cx="64" cy="64" r="4" fill="#f07c30"/><circle cx="93" cy="111" r="4" fill="#e84d8a"/><circle cx="122" cy="30" r="4" fill="#ffd24a"/><circle cx="23" cy="77" r="4" fill="#8f59cf"/><circle cx="52" cy="124" r="4" fill="#ffffff"/><circle cx="81" cy="43" r="4" fill="#f07c30"/></g></svg>