<svg xmlns="http://www.w3.org/2000/svg" width="128" height="128" viewBox="0 0 128 128"><rect width="128" height="128" fill="#4b9bc9"/><g fill="none" stroke="#275d6c" stroke-width="4" opacity=".65"><path d="M-10 0 C25 -10, 55 10, 90 0 S145 0, 160 0"/><path d="M-10 18 C25 8, 55 28, 90 18 S145 18, 160 18"/><path d="M-10 36 C25 26, 55 46, 90 36 S145 36, 160 36"/><path d="M-10 54 C25 44, 55 64, 90 54 S145 54, 160 54"/><path d="M-10 72 C25 62, 55 82, 90 72 S145 72, 160 72"/><path d="M-10 90 C25 80, 55 100, 90 90 S145 90, 160 90"/><path d="M-10 108 C25 98, 55 118, 90 108 S145 108, 160 108"/><path d="M-10 126 C25 116, 55 136, 90 126 S145 126, 160 126"/><path d="M-10 144 C25 134, 55 154, 90 144 S145 144, 160 144"/></g></svg>